<mxfile host="app.diagrams.net" modified="2022-02-01T15:54:38.191Z" agent="5.0 (Macintosh)" etag="LMX21ARxXEc-UyATn7sm" version="16.5.2" type="github">
  <diagram id="0eTiOtV9OdToB6aXSFPl" name="Page-1">
    <mxGraphModel dx="1298" dy="758" grid="1" gridSize="10" guides="1" tooltips="1" connect="1" arrows="1" fold="1" page="1" pageScale="1" pageWidth="827" pageHeight="1169" math="0" shadow="0">
      <root>
        <mxCell id="0" />
        <mxCell id="1" parent="0" />
        <mxCell id="3RvaX-GYd61QJalBVDor-1" value="" style="verticalLabelPosition=bottom;html=1;verticalAlign=top;align=center;strokeColor=none;fillColor=#00BEF2;shape=mxgraph.azure.github_code;pointerEvents=1;" vertex="1" parent="1">
          <mxGeometry x="330" y="190" width="50" height="50" as="geometry" />
        </mxCell>
        <mxCell id="3RvaX-GYd61QJalBVDor-2" value="" style="verticalLabelPosition=bottom;html=1;verticalAlign=top;align=center;strokeColor=none;fillColor=#00BEF2;shape=mxgraph.azure.healthy;" vertex="1" parent="1">
          <mxGeometry x="200" y="410" width="50" height="45" as="geometry" />
        </mxCell>
      </root>
    </mxGraphModel>
  </diagram>
</mxfile>
